<?xml version="1.0" encoding="UTF-8"?>
<svg xmlns="http://www.w3.org/2000/svg" xmlns:xlink="http://www.w3.org/1999/xlink" viewBox="0 0 50 50" width="40px" height="25px">
<g id="surface44876522">
<path style="fill-rule:nonzero;fill:rgb(100%,90.196079%,0%);fill-opacity:1;stroke-width:14;stroke-linecap:butt;stroke-linejoin:round;stroke:rgb(0%,0%,0%);stroke-opacity:1;stroke-miterlimit:10;" d="M 85.999998 76.212728 L 140.506219 21.721049 L 150.278946 31.493776 L 95.787268 85.999998 L 150.61343 140.82616 L 140.82616 150.61343 L 85.999998 95.787268 L 31.072037 150.61343 L 21.386566 140.927959 L 76.212728 85.999998 L 21.721049 31.493776 L 31.493776 21.721049 Z M 85.999998 76.212728 " transform="matrix(0.268605,0,0,0.268605,1.9,1.9)"/>
<path style=" stroke:none;fill-rule:nonzero;fill:rgb(100%,90.196079%,0%);fill-opacity:1;" d="M 10.359375 7.734375 L 7.734375 10.359375 L 22.371094 25 L 7.644531 39.753906 L 10.246094 42.355469 L 25 27.628906 L 39.726562 42.355469 L 42.355469 39.726562 L 27.628906 25 L 42.265625 10.359375 L 39.640625 7.734375 L 25 22.371094 Z M 10.359375 7.734375 "/>
</g>
</svg>
