<?xml version="1.0" encoding="UTF-8"?>
<svg xmlns="http://www.w3.org/2000/svg" xmlns:xlink="http://www.w3.org/1999/xlink" viewBox="0 0 50 50" width="40px" height="25px">
<g id="surface43461202">
<path style="fill-rule:nonzero;fill:rgb(100%,90.196079%,0%);fill-opacity:1;stroke-width:14;stroke-linecap:butt;stroke-linejoin:round;stroke:rgb(0%,0%,0%);stroke-opacity:1;stroke-miterlimit:10;" d="M 171.999998 25.8 L 171.999998 43 L 0.0000002062 43 L 0.0000002062 25.8 Z M 171.999998 77.399999 L 171.999998 94.599999 L 0.0000002062 94.599999 L 0.0000002062 77.399999 Z M 171.999998 128.999999 L 171.999998 146.199998 L 0.0000002062 146.199998 L 0.0000002062 128.999999 Z M 171.999998 128.999999 " transform="matrix(0.268895,0,0,0.268895,1.875,1.875)"/>
<path style=" stroke:none;fill-rule:nonzero;fill:rgb(100%,90.196079%,0%);fill-opacity:1;" d="M 1.875 8.8125 L 1.875 13.4375 L 48.125 13.4375 L 48.125 8.8125 Z M 1.875 22.6875 L 1.875 27.3125 L 48.125 27.3125 L 48.125 22.6875 Z M 1.875 36.5625 L 1.875 41.1875 L 48.125 41.1875 L 48.125 36.5625 Z M 1.875 36.5625 "/>
</g>
</svg>
